PathFileType	4	(X/Y/Z)	/home/nbianco/projects/addbio/data/HamnerRunning2013/Processed/subject10//results/MarkerData/run500.trc
DataRate	CameraRate	NumFrames	NumMarkers	Units	OrigDataRate	OrigDataStartFrame	OrigNumFrames
100	100	10	42	m	100	181	242
Frame#	Time	C7			CLAV			LACR			LASI			LCAL			LFAradius			LFAsuperior			LFAulna			LLEL			LMEL			LMT5			LPSI			LTB1			LTB2			LTB3			LTH1			LTH2			LTH3			LTOE			LUA1			LUA2			LUA3			RACR			RASI			RCAL			RFAradius			RFAsuperior			RFAulna			RLEL			RMEL			RMT5			RPSI			RTB1			RTB2			RTB3			RTH1			RTH2			RTH3			RTOE			RUA1			RUA2			RUA3		
		X1	Y1	Z1	X2	Y2	Z2	X3	Y3	Z3	X4	Y4	Z4	X5	Y5	Z5	X6	Y6	Z6	X7	Y7	Z7	X8	Y8	Z8	X9	Y9	Z9	X10	Y10	Z10	X11	Y11	Z11	X12	Y12	Z12	X13	Y13	Z13	X14	Y14	Z14	X15	Y15	Z15	X16	Y16	Z16	X17	Y17	Z17	X18	Y18	Z18	X19	Y19	Z19	X20	Y20	Z20	X21	Y21	Z21	X22	Y22	Z22	X23	Y23	Z23	X24	Y24	Z24	X25	Y25	Z25	X26	Y26	Z26	X27	Y27	Z27	X28	Y28	Z28	X29	Y29	Z29	X30	Y30	Z30	X31	Y31	Z31	X32	Y32	Z32	X33	Y33	Z33	X34	Y34	Z34	X35	Y35	Z35	X36	Y36	Z36	X37	Y37	Z37	X38	Y38	Z38	X39	Y39	Z39	X40	Y40	Z40	X41	Y41	Z41	X42	Y42	Z42

182	3.86	0.826549	1.47954	-0.330868	0.927877	1.35399	-0.298262	0.874529	1.44206	-0.46593	0.832271	0.957079	-0.457616	0.250287	0.541269	-0.389655	1.00142	1.1794	-0.464488	0.946737	1.18986	-0.59363	1.04507	1.13976	-0.501315	0.856305	1.17009	-0.670512	0.810253	1.13289	-0.619687	0.100106	0.412752	-0.439199	0.68117	1.01941	-0.373557	0.523444	0.426732	-0.411613	0.48624	0.432669	-0.467666	0.329195	0.443541	-0.400608	0.733437	0.762757	-0.495739	0.748324	0.644497	-0.48852	0.652598	0.566233	-0.472971	0.130759	0.36052	-0.35038	0.848824	1.34244	-0.575148	0.793238	1.2782	-0.574775	0.858671	1.25095	-0.627481	0.844234	1.43847	-0.182218	0.848287	0.971423	-0.215653	1.03364	0.107479	-0.331879	0.711881	1.12197	-0.106631	0.619332	1.21551	-0.0608363	0.65159	1.08736	-0.0973082	0.554092	1.30929	-0.0803894	0.544535	1.29891	-0.157742	1.2195	0.107516	-0.25116	0.679816	1.01235	-0.274082	1.07236	0.423044	-0.263315	1.05099	0.335037	-0.225874	1.09841	0.239496	-0.295858	0.865782	0.747216	-0.147096	0.963039	0.705989	-0.16326	0.96025	0.600671	-0.19089	1.24488	0.175635	-0.340637	0.732626	1.40003	-0.100541	0.662819	1.38904	-0.161946	0.626159	1.33987	-0.090189
183	3.87	0.824595	1.47333	-0.329753	0.928122	1.34916	-0.299229	0.872807	1.43685	-0.466445	0.837462	0.950958	-0.456468	0.279372	0.559585	-0.389724	0.993313	1.15966	-0.471096	0.934919	1.17914	-0.596219	1.03282	1.11868	-0.51061	0.841676	1.1669	-0.671674	0.794925	1.13129	-0.620319	0.122337	0.442308	-0.444323	0.684968	1.01082	-0.377238	0.543564	0.423424	-0.417621	0.514449	0.432054	-0.469105	0.351545	0.456519	-0.40411	0.74234	0.75511	-0.49806	0.761967	0.637915	-0.493198	0.670197	0.556584	-0.477795	0.147766	0.386746	-0.356084	0.841906	1.33832	-0.575558	0.784666	1.27578	-0.574348	0.848289	1.24693	-0.629262	0.844326	1.43213	-0.181661	0.849549	0.966699	-0.213521	0.997652	0.0988153	-0.335681	0.725768	1.11324	-0.104759	0.629997	1.20198	-0.0547353	0.666703	1.07648	-0.0940608	0.560199	1.29259	-0.0719505	0.54846	1.28288	-0.14916	1.18145	0.0789753	-0.255899	0.681918	1.005	-0.277678	1.05517	0.403491	-0.265761	1.02937	0.320695	-0.229137	1.07055	0.218916	-0.299258	0.864595	0.74027	-0.149112	0.958857	0.69469	-0.165184	0.951321	0.588408	-0.193543	1.21194	0.141821	-0.347153	0.735087	1.38976	-0.0979126	0.662552	1.3774	-0.155562	0.63013	1.32571	-0.0833145
184	3.88	0.82222	1.46622	-0.328779	0.928659	1.34362	-0.300703	0.87057	1.43141	-0.467107	0.842516	0.943532	-0.455117	0.31091	0.574038	-0.390767	0.985203	1.13854	-0.478202	0.922263	1.16829	-0.60003	1.01879	1.09752	-0.52158	0.826196	1.16388	-0.67263	0.77931	1.12976	-0.620937	0.149397	0.465123	-0.448504	0.688468	1.00115	-0.380853	0.56629	0.419026	-0.423567	0.544236	0.431707	-0.470169	0.377403	0.466995	-0.406867	0.75229	0.746522	-0.500033	0.776875	0.63072	-0.496958	0.689455	0.546499	-0.482656	0.170016	0.40861	-0.360094	0.834067	1.33373	-0.57581	0.775596	1.27286	-0.573567	0.837231	1.2427	-0.630505	0.844783	1.42519	-0.180899	0.850237	0.96144	-0.21175	0.962019	0.0968899	-0.342365	0.740315	1.10346	-0.102534	0.641543	1.18679	-0.0476661	0.683154	1.06398	-0.0903446	0.567756	1.2745	-0.0626745	0.553536	1.26491	-0.139388	1.14171	0.0575656	-0.261464	0.68322	0.997322	-0.281081	1.03925	0.387456	-0.268869	1.00784	0.309568	-0.232009	1.04405	0.202904	-0.305519	0.86107	0.730837	-0.149953	0.952597	0.680834	-0.165795	0.941276	0.575403	-0.194821	1.1783	0.109593	-0.355822	0.738146	1.378	-0.0950661	0.662796	1.36362	-0.148344	0.635345	1.30969	-0.0759769
185	3.89	0.820032	1.45926	-0.327675	0.929612	1.33777	-0.302562	0.867657	1.42622	-0.46824	0.846849	0.935375	-0.453395	0.344953	0.584163	-0.392562	0.975741	1.11668	-0.486251	0.908643	1.1576	-0.604503	1.00293	1.07765	-0.533653	0.809865	1.16117	-0.673243	0.763292	1.12848	-0.62123	0.180051	0.481619	-0.452268	0.690536	0.991259	-0.384007	0.592177	0.413876	-0.428619	0.575206	0.431928	-0.470861	0.406278	0.474199	-0.408691	0.763663	0.737987	-0.501128	0.793004	0.623462	-0.499699	0.710684	0.536211	-0.486798	0.196421	0.425289	-0.363189	0.825397	1.32895	-0.575785	0.766165	1.26976	-0.572291	0.825497	1.23848	-0.631143	0.845943	1.4182	-0.179849	0.848945	0.956222	-0.210304	0.925482	0.100076	-0.351566	0.755578	1.0927	-0.100495	0.654394	1.17002	-0.0402384	0.700761	1.05011	-0.0866602	0.577165	1.25529	-0.0528569	0.560166	1.24531	-0.128742	1.10037	0.0469074	-0.266898	0.682346	0.990506	-0.283706	1.0254	0.378433	-0.273152	0.987079	0.302334	-0.234374	1.01845	0.194681	-0.314558	0.854415	0.721286	-0.149728	0.945501	0.6696	-0.164586	0.932908	0.566228	-0.193829	1.14331	0.0853657	-0.364646	0.742136	1.36505	-0.0918246	0.664355	1.34811	-0.140516	0.642477	1.29199	-0.0683811
186	3.9	0.81878	1.45348	-0.326161	0.930861	1.33228	-0.304576	0.864054	1.42174	-0.470153	0.849719	0.927261	-0.450954	0.380842	0.589799	-0.394869	0.963845	1.09612	-0.494979	0.8938	1.14803	-0.608642	0.985106	1.0607	-0.545902	0.792711	1.15903	-0.67339	0.746699	1.12778	-0.620843	0.213645	0.491874	-0.456316	0.690254	0.982331	-0.386616	0.621637	0.408784	-0.431649	0.606983	0.43298	-0.471183	0.437825	0.477528	-0.40992	0.776485	0.730496	-0.501022	0.810342	0.617063	-0.501181	0.734414	0.526182	-0.489454	0.226543	0.435933	-0.366464	0.81608	1.32435	-0.575389	0.756311	1.26675	-0.570323	0.813004	1.23472	-0.631571	0.847564	1.41179	-0.178699	0.844979	0.951661	-0.208981	0.885746	0.104754	-0.359965	0.771882	1.08116	-0.098947	0.669474	1.15221	-0.0331749	0.719667	1.0354	-0.0832462	0.588939	1.23521	-0.0426892	0.56886	1.2244	-0.117497	1.057	0.0454188	-0.270882	0.678718	0.9853	-0.285565	1.01202	0.375698	-0.277861	0.966716	0.298289	-0.23634	0.991039	0.193319	-0.323237	0.846257	0.715198	-0.149074	0.939316	0.665821	-0.162753	0.928011	0.563593	-0.190976	1.10485	0.0726056	-0.371222	0.747403	1.35133	-0.0882177	0.667732	1.33143	-0.132348	0.65197	1.2732	-0.0606811
187	3.91	0.818806	1.44923	-0.32447	0.932074	1.32773	-0.306593	0.860258	1.41805	-0.472818	0.850647	0.919999	-0.447665	0.417445	0.591289	-0.397465	0.949345	1.07906	-0.503252	0.877703	1.14072	-0.611798	0.965161	1.04776	-0.557216	0.774876	1.15776	-0.672856	0.729721	1.12799	-0.6194	0.249895	0.495274	-0.461337	0.687543	0.975441	-0.388905	0.654834	0.404656	-0.431912	0.639225	0.435075	-0.471137	0.472035	0.476884	-0.41112	0.790301	0.72474	-0.499885	0.829185	0.612677	-0.501021	0.761275	0.517436	-0.490277	0.260204	0.439792	-0.370736	0.806598	1.32035	-0.574602	0.745974	1.26415	-0.56733	0.799641	1.23192	-0.631946	0.849051	1.4064	-0.177869	0.838958	0.948181	-0.207559	0.842334	0.108058	-0.364325	0.789725	1.06913	-0.0978852	0.687901	1.1345	-0.027215	0.740298	1.02056	-0.0798843	0.603684	1.21469	-0.0323319	0.580061	1.20274	-0.10574	1.01198	0.0477923	-0.272511	0.673188	0.981591	-0.28729	0.996498	0.374519	-0.281213	0.945701	0.295582	-0.238386	0.959604	0.194262	-0.328078	0.839024	0.714121	-0.148566	0.934058	0.668765	-0.162033	0.924658	0.565288	-0.188216	1.06234	0.0692313	-0.374159	0.754059	1.33742	-0.0847201	0.672937	1.31425	-0.124264	0.663945	1.25444	-0.0530658
188	3.92	0.819693	1.44613	-0.323459	0.932949	1.3243	-0.308651	0.857238	1.41494	-0.47579	0.84974	0.914297	-0.443952	0.453432	0.58931	-0.400066	0.932997	1.06624	-0.509922	0.860781	1.13604	-0.614054	0.943243	1.03877	-0.56685	0.756661	1.15762	-0.671323	0.712979	1.12939	-0.616564	0.288711	0.490842	-0.467723	0.683348	0.971054	-0.391173	0.691719	0.402207	-0.429609	0.671622	0.438363	-0.470726	0.508998	0.472927	-0.412523	0.804195	0.721082	-0.498338	0.850019	0.611484	-0.498974	0.791613	0.511645	-0.489578	0.296993	0.436425	-0.376109	0.797669	1.31744	-0.573512	0.735482	1.26245	-0.562976	0.785473	1.23042	-0.631723	0.85009	1.40212	-0.177742	0.832232	0.946006	-0.205786	0.797111	0.10931	-0.364379	0.809626	1.05728	-0.0971674	0.710161	1.1183	-0.0227908	0.763093	1.00643	-0.076195	0.62176	1.19458	-0.0220308	0.593926	1.18119	-0.093437	0.966607	0.0494712	-0.272074	0.667464	0.978882	-0.289516	0.977298	0.370048	-0.282449	0.922974	0.292127	-0.24123	0.92412	0.193104	-0.328908	0.833556	0.715998	-0.14855	0.927895	0.67204	-0.163132	0.918305	0.565935	-0.187855	1.01762	0.0698082	-0.374056	0.761766	1.32425	-0.0821074	0.679581	1.29739	-0.116764	0.678196	1.23706	-0.0458141
189	3.93	0.820643	1.44364	-0.323992	0.933437	1.32164	-0.310866	0.855837	1.41224	-0.478496	0.847601	0.910654	-0.440763	0.487384	0.584489	-0.402324	0.91604	1.05663	-0.514936	0.843747	1.13307	-0.61591	0.920202	1.03267	-0.57508	0.738471	1.15886	-0.66855	0.697042	1.13222	-0.612156	0.330124	0.478009	-0.475329	0.679126	0.968958	-0.393403	0.731933	0.402003	-0.42567	0.703899	0.442918	-0.469957	0.548309	0.466983	-0.41371	0.817063	0.719805	-0.497026	0.872911	0.614631	-0.495202	0.824988	0.510738	-0.488068	0.336322	0.425757	-0.382081	0.789895	1.31604	-0.572308	0.725735	1.26228	-0.557206	0.770945	1.23046	-0.630074	0.851032	1.3988	-0.178388	0.825887	0.945154	-0.203536	0.75254	0.109412	-0.362586	0.831871	1.04673	-0.0967828	0.735487	1.10476	-0.0196795	0.788259	0.994078	-0.0722493	0.642834	1.17612	-0.0121552	0.610319	1.16089	-0.0807824	0.922247	0.0493834	-0.27088	0.662899	0.977032	-0.292196	0.954559	0.361046	-0.283082	0.897944	0.286773	-0.245283	0.886196	0.188827	-0.328942	0.828434	0.716882	-0.149289	0.919103	0.669171	-0.165545	0.905878	0.561733	-0.190758	0.97329	0.0700713	-0.372934	0.76985	1.31303	-0.0809048	0.687265	1.28169	-0.110244	0.694266	1.2222	-0.0392323
190	3.94	0.821255	1.44168	-0.326077	0.933708	1.31935	-0.313194	0.856091	1.41011	-0.480566	0.844941	0.909264	-0.439095	0.518052	0.576984	-0.403943	0.899489	1.04864	-0.519471	0.827138	1.13059	-0.617687	0.897499	1.02822	-0.583106	0.720704	1.16183	-0.66458	0.68195	1.13671	-0.606298	0.374207	0.457366	-0.483543	0.675989	0.968649	-0.395117	0.774602	0.404623	-0.421005	0.735809	0.448718	-0.468841	0.588684	0.460481	-0.413857	0.828109	0.721237	-0.496172	0.896875	0.623092	-0.490329	0.859926	0.516123	-0.48622	0.377979	0.408043	-0.388154	0.783475	1.31637	-0.57124	0.717804	1.26412	-0.550446	0.756809	1.23224	-0.626735	0.852598	1.39625	-0.179546	0.820481	0.945202	-0.201234	0.709964	0.109459	-0.361542	0.856219	1.03903	-0.0969991	0.762202	1.09452	-0.0171059	0.815654	0.984864	-0.0688032	0.665858	1.16065	-0.00309116	0.628975	1.14302	-0.0684561	0.879575	0.0488312	-0.270196	0.659838	0.976403	-0.294554	0.929161	0.349985	-0.285333	0.870537	0.279979	-0.250111	0.847703	0.183483	-0.331128	0.821477	0.714276	-0.150944	0.907497	0.659063	-0.168457	0.88822	0.55316	-0.195721	0.930838	0.0690959	-0.372563	0.777785	1.30485	-0.080912	0.695992	1.26787	-0.104892	0.711589	1.2104	-0.0335125
191	3.95	0.82177	1.44068	-0.328674	0.933948	1.31739	-0.315367	0.857195	1.40892	-0.481947	0.842241	0.909965	-0.439362	0.544944	0.566299	-0.404795	0.883518	1.04164	-0.524832	0.811048	1.12848	-0.619228	0.876348	1.02495	-0.591893	0.703655	1.16688	-0.659775	0.667369	1.14308	-0.599477	0.420983	0.430776	-0.491638	0.674199	0.969688	-0.395711	0.818286	0.410652	-0.415985	0.767132	0.455636	-0.467392	0.628429	0.454185	-0.412442	0.837245	0.725594	-0.495506	0.919934	0.637153	-0.485255	0.894231	0.527964	-0.483859	0.422497	0.383932	-0.39429	0.778202	1.31832	-0.570546	0.712149	1.26812	-0.543511	0.743736	1.23596	-0.62231	0.855185	1.3945	-0.180855	0.816402	0.945237	-0.199902	0.669392	0.10996	-0.362049	0.881775	1.03559	-0.0982791	0.788824	1.08794	-0.0144355	0.844755	0.980161	-0.0668051	0.689627	1.14909	0.00491743	0.649563	1.12861	-0.0573483	0.838538	0.0489078	-0.270385	0.657961	0.977319	-0.295718	0.901775	0.34021	-0.289604	0.841003	0.273398	-0.254523	0.809988	0.179405	-0.335194	0.811637	0.708924	-0.153334	0.893976	0.64602	-0.171289	0.868454	0.543543	-0.200574	0.890297	0.0679413	-0.373317	0.785639	1.30013	-0.0813107	0.706162	1.25652	-0.100691	0.729658	1.20185	-0.0286624
